<?xml version="1.0" encoding="UTF-8" standalone="no"?><!DOCTYPE svg PUBLIC "-//W3C//DTD SVG 1.1//EN" "http://www.w3.org/Graphics/SVG/1.1/DTD/svg11.dtd"><svg width="100%" height="100%" viewBox="0 0 17780 17780" version="1.1" xmlns="http://www.w3.org/2000/svg" xmlns:xlink="http://www.w3.org/1999/xlink" xml:space="preserve" xmlns:serif="http://www.serif.com/" style="fill-rule:evenodd;clip-rule:evenodd;stroke-linejoin:round;stroke-miterlimit:2;"><g id="Background"><path d="M9358.989,9173.634c17.075,-10.9 122.108,-77.946 240.512,-79.137c389.721,-3.929 466.596,422.542 485.346,420.617c12.637,-1.296 107.35,-361.6 382.717,-414.696c645.417,-124.442 611.158,865.396 616.958,990.442c32.417,698.521 117.496,685.875 116.254,746.283c-0.892,43.425 -26.175,36.179 -542.142,28.754c-97.796,-1.408 -12.083,-62.983 11.488,-134.867c48.467,-147.808 79.796,-968.783 78.925,-1109.329c-4.429,-715.967 -446.879,-461.779 -551.783,-153.767c-58.646,172.196 -151.987,1047.837 23.212,1353.742c21.963,38.35 -14.629,55.129 -550.642,44.008c-32.833,-0.679 -31.383,-24.917 -31.183,-28.279c3.446,-57.729 57.683,-42.792 79.821,-295.775c106.942,-1222.283 52.404,-1333.754 -101.671,-1370.558c-534.075,-127.575 -568.533,1337.433 -398.967,1648.487c4.392,8.058 22.65,48.225 -104.279,47.771c-338.062,-1.221 -487.579,14.254 -455.992,-49.946c25.171,-51.154 46.538,-44.075 66.283,-258.829c93.417,-1015.846 -4.65,-1300.204 -41.354,-1406.633c-18.292,-53.046 46.554,-45.837 396.225,-46.371c100.967,-0.154 -2.317,384.521 36.221,407.867c65.458,39.658 -34.608,-102.629 244.042,-339.787l0.008,0.004Z" style="fill:#ad8966;"/><path d="M8093.947,10378.371c3.551,8.446 5.404,6.977 45.469,33.352c11.086,7.298 9.602,9.228 21.831,14.76c-4.972,21.306 -13.409,172.383 -21.84,220.287c-22.736,129.189 -144.795,114.554 -156.177,110.303c-46.398,-17.331 -40.661,-27.492 -783.821,-919.078c-171.079,-205.247 -170.291,-205.537 -233.393,-278.689c-194.764,-225.783 -233.515,-199.984 -355.089,-198.576c-33.647,0.39 -35.71,-24.239 -30.227,-34.019c10.106,-18.028 14.731,-14.64 246.982,-75.767c398.077,-104.771 730.695,-194.659 708.834,-149.246c-15.098,31.365 -93.41,35.487 -137.728,113.484c-20.812,36.628 -11.33,97.937 0.695,129.07c10.861,28.12 52.586,136.147 190.268,325.244c341.694,469.294 337.908,471.607 367.851,512.208c32.833,44.52 134.04,194.653 136.345,196.667Z" style="fill:#6b7454;fill-opacity:1;"/><path d="M7981.017,10538.592c10.107,-1.116 8.828,-10.287 13.773,-18.412c9.008,-14.802 41.183,-67.673 87.907,-197.956c23.844,-66.484 38.01,-105.985 291.68,-833.306c99.558,-285.451 101.826,-352.258 232.585,-598.533c36.452,-68.654 39.894,-66.404 43.048,-72.356c29.668,-55.992 123.201,-170.899 126.349,-174.171c54.401,-56.544 344.284,-438.207 1033.16,-475.341c124.017,-6.685 195.737,-1.757 164.225,92.433c-30.393,90.849 -106.648,210.058 -107.317,211.036c-6.433,9.395 -56.106,81.94 -86.249,113.217c-58.857,61.071 -149.219,163.029 -409.019,290.098c-104.685,51.202 -363.928,149.961 -382.34,156.312c-126.945,43.785 -123.492,51.908 -249.987,95.866c-28.126,9.774 -54.348,25.97 -55.877,8.065c-3.08,-36.058 188.978,-270.033 215.581,-298.771c2.739,-2.959 18.891,-20.408 33.237,-37.896c46.974,-57.261 143.303,-140.118 156.514,-151.481c401.536,-345.377 746.544,-339.844 697.679,-372.033c-21.943,-14.454 -41.799,-6.175 -55.753,-2.984c-151.328,34.608 -305.375,110.152 -307.241,110.764c-12.516,4.106 -102.086,53.754 -110.161,59.074c-37.594,24.766 -199.846,110.249 -390.775,301.496c-133.175,133.396 -223.442,273.348 -224.858,275.102c-16.274,20.164 -14.803,21.12 -99.242,162.851c-69.189,116.134 -208.578,440.936 -270.042,612.649c-266.462,744.42 -270.93,742.711 -293.639,807.598c-10.471,-8.397 -8.555,-9.898 -17.48,-19.721c-32.257,-35.501 -34.418,-34.538 -35.759,-43.602Z" style="fill:#a98663;fill-opacity:1;"/></g></svg>