<?xml version="1.0" encoding="UTF-8" standalone="no"?><!DOCTYPE svg PUBLIC "-//W3C//DTD SVG 1.1//EN" "http://www.w3.org/Graphics/SVG/1.1/DTD/svg11.dtd"><svg width="100%" height="100%" viewBox="0 0 4267 4267" version="1.1" xmlns="http://www.w3.org/2000/svg" xmlns:xlink="http://www.w3.org/1999/xlink" xml:space="preserve" xmlns:serif="http://www.serif.com/" style="fill-rule:evenodd;clip-rule:evenodd;stroke-linejoin:round;stroke-miterlimit:2;"><g id="Background"><path d="M1577.726,1884.628c-3.002,-2.866 -47.359,-37.099 -70.366,-95.459c-14.379,-36.475 10.338,-29.84 49.023,-25.817c453.114,47.125 414.93,624.015 157.929,653.665c-266.834,30.784 -278.694,-326.243 -124.278,-409.957c125.852,-68.228 211.905,56.483 216.19,56.415c9.638,-0.154 -16.444,-166.282 -196.034,-256.44c-100.873,-50.64 27.501,25.365 30.295,27.02c66.134,39.155 130.496,123.154 107.394,118.48c-123.499,-24.986 -147.855,-51.416 -170.153,-67.907Z" style="fill:#6d7655;"/><path d="M2106.833,2007.039c4.098,-2.616 29.306,-18.707 57.723,-18.993c93.533,-0.943 111.983,101.41 116.483,100.948c3.033,-0.311 25.764,-86.784 91.852,-99.527c154.9,-29.866 146.678,207.695 148.07,237.706c7.78,167.645 28.199,164.61 27.901,179.108c-0.214,10.422 -6.282,8.683 -130.114,6.901c-23.471,-0.338 -2.9,-15.116 2.757,-32.368c11.632,-35.474 19.151,-232.508 18.942,-266.239c-1.063,-171.832 -107.251,-110.827 -132.428,-36.904c-14.075,41.327 -36.477,251.481 5.571,324.898c5.271,9.204 -3.511,13.231 -132.154,10.562c-7.88,-0.163 -7.532,-5.98 -7.484,-6.787c0.827,-13.855 13.844,-10.27 19.157,-70.986c25.666,-293.348 12.577,-320.101 -24.401,-328.934c-128.178,-30.618 -136.448,320.984 -95.752,395.637c1.054,1.934 5.436,11.574 -25.027,11.465c-81.135,-0.293 -117.019,3.421 -109.438,-11.987c6.041,-12.277 11.169,-10.578 15.908,-62.119c22.42,-243.803 -1.116,-312.049 -9.925,-337.592c-4.39,-12.731 11.173,-11.001 95.094,-11.129c24.232,-0.037 -0.556,92.285 8.693,97.888c15.71,9.518 -8.306,-24.631 58.57,-81.549Z" style="fill:#ad8966;"/><path d="M3231.157,2374.746c123.71,-4.137 109.365,-83.761 133.586,-81.878c38.736,3.012 -118.768,203.585 -294.684,94.633c-178.604,-110.617 -68.863,-473.974 185.731,-388.312c124.761,41.978 153.176,235.644 -95.176,213.626c-46.616,-4.133 -94.972,-28.548 -92.397,-10.685c3.967,27.525 22.948,84.406 55.627,119.934c47.81,51.978 98.795,51.871 107.315,52.682Z" style="fill:#6c7554;"/><path d="M2570.481,2222.827c0.644,-15.808 -5.496,-76.875 36.838,-145.055c17.508,-28.197 52.415,-62.063 95.46,-78.013c178.312,-66.072 315.509,136.416 181.727,196.196c-103.326,46.171 -229.598,-10.891 -228.314,1.952c10.954,109.541 114.3,203.609 208.484,171.135c57.467,-19.814 73.703,-62.77 80.724,-73.886c3.05,-4.829 15.094,-1.882 9.62,10.592c-49.044,111.747 -206.339,147.613 -301.628,77.825c-77.949,-57.089 -79.774,-135.637 -82.911,-160.747Z" style="fill:#6c7554;"/><path d="M1327.014,2374.567c125.155,-3.534 111.906,-102.485 132.344,-79.836c19.17,21.244 -107.213,172.171 -260.948,110.214c-229.329,-92.422 -111.375,-485.586 136.454,-409.55c146.381,44.911 153.125,234.508 -70.244,218.66c-65.408,-4.641 -105.224,-30.711 -104.083,-16.135c0.768,9.807 14.578,87.922 67.644,136.274c36.258,33.038 90.35,39.378 98.833,40.372Z" style="fill:#6c7554;"/><path d="M1596.675,2298.297c-5.768,-23.088 -65.183,-260.894 55.346,-292.276c177.672,-46.261 223.975,363.379 74.695,390.1c-99.003,17.721 -122.486,-76.93 -130.042,-97.824Z" style="fill:#e7e5de;"/><path d="M3389.629,2004.887c-12.313,-1.036 -12.282,-0.793 -13.298,-1.119c-21.394,-6.848 11.884,-13.262 13.38,-13.55c95.382,-18.381 103.728,-141.812 104.118,-142.239c19.416,-21.253 9.11,114.731 12.721,137.369c2.171,13.612 112.343,1.622 120.105,8.87c17.638,16.47 -48.815,10.959 -99.568,12.176c-30.068,0.721 -20.464,17.304 -20.411,29.017c0.142,31.298 0.064,260.041 1.316,283.247c6.826,126.505 95.032,62.929 105.867,53.394c43.974,-38.696 1.074,42.311 -74.311,45.787c-162.511,7.492 -118.349,-207.287 -125.158,-403.24c-0.561,-16.143 -8.468,-8.241 -24.761,-9.713Z" style="fill:#ad8a67;"/><path d="M932.511,2330.28c5.777,7.378 6.474,6.144 12.073,13.728c-19.019,49.971 -17.157,70.035 -50.747,68.886c-19.551,-0.669 -15.694,-9.664 -114.713,-215.952c-82.793,-172.484 -79.863,-184.63 -131.554,-193.58c-7.429,-1.286 -9.47,-12.118 4.546,-11.95c87.983,1.053 290.197,-6.575 208.03,13.784c-66.368,16.444 -4.421,110.203 72.364,325.085Z" style="fill:#6b7454;"/><path d="M932.511,2330.28c16.072,-22.44 28.676,-66.097 102.905,-278.197c18.216,-52.051 67.915,-285.02 349.993,-292.548c39.992,-1.067 27.805,20.217 9.252,55.537c-54.606,103.956 -168.873,129.146 -288.636,177.685c-17.429,7.064 12.239,-28.46 19.136,-37.913c127.465,-174.692 276.962,-158.428 234.866,-172.038c-1.19,-0.385 -59.303,11.655 -115.058,46.27c-175.665,109.06 -203.459,257.461 -300.383,514.932c-5.599,-7.584 -6.296,-6.35 -12.073,-13.728Z" style="fill:#aa8764;"/><path d="M3063.674,2152.127c0.358,-13.052 3.111,-113.313 79.838,-142.345c132.664,-50.197 212.358,134.613 74.708,178.08c-33.012,10.424 -146.549,13.757 -154.546,-35.735Z" style="fill:#e6e4de;"/><path d="M2864.503,2143.705c-73.465,99.021 -208.167,29.968 -211.978,20.685c-17.543,-42.729 29.052,-189.23 153.79,-158.407c35.153,8.686 96.819,58.656 58.188,137.722Z" style="fill:#e6e4de;"/><path d="M1378.655,2085.234c4.704,159.004 -220.62,111.477 -222.848,71.043c-9.054,-164.345 187.672,-215.282 222.848,-71.043Z" style="fill:#e6e4de;"/></g></svg>